STARTFONT 2.1
FONT -Adobe-Times-Medium-I-Normal--34-240-100-100-P-168-ISO8859-2
SIZE 24 100 100
FONTBOUNDINGBOX 38 37 -6 -7
COMMENT $XConsortium: timI24.bdf,v 1.7 95/01/26 17:59:15 gildea Exp $
COMMENT 
COMMENT +
COMMENT  Copyright 1984-1989, 1994 Adobe Systems Incorporated.
COMMENT  Copyright 1988, 1994 Digital Equipment Corporation.
COMMENT
COMMENT  Adobe is a trademark of Adobe Systems Incorporated which may be
COMMENT  registered in certain jurisdictions.
COMMENT  Permission to use these trademarks is hereby granted only in
COMMENT  association with the images described in this file.
COMMENT
COMMENT  Permission to use, copy, modify, distribute and sell this software
COMMENT  and its documentation for any purpose and without fee is hereby
COMMENT  granted, provided that the above copyright notices appear in all
COMMENT  copies and that both those copyright notices and this permission
COMMENT  notice appear in supporting documentation, and that the names of
COMMENT  Adobe Systems and Digital Equipment Corporation not be used in
COMMENT  advertising or publicity pertaining to distribution of the software
COMMENT  without specific, written prior permission.  Adobe Systems and
COMMENT  Digital Equipment Corporation make no representations about the
COMMENT  suitability of this software for any purpose.  It is provided "as
COMMENT  is" without express or implied warranty.
COMMENT -
COMMENT  
COMMENT  Translation to ISO8859-2 by Cub Soft;  Petr.Kolar@vslib.cz
COMMENT  
STARTPROPERTIES 28
FOUNDRY "Adobe"
FAMILY_NAME "Times"
WEIGHT_NAME "Medium"
SLANT "I"
SETWIDTH_NAME "Normal"
ADD_STYLE_NAME ""
PIXEL_SIZE 34
POINT_SIZE 240
RESOLUTION_X 100
RESOLUTION_Y 100
SPACING "P"
AVERAGE_WIDTH 168
CHARSET_REGISTRY "ISO8859"
CHARSET_ENCODING "2"
CAP_HEIGHT 23
X_HEIGHT 15
FONT_ASCENT 27
FONT_DESCENT 7
FACE_NAME "Times Italic"

STARTCHAR space
ENCODING 32
SWIDTH 250 0
DWIDTH 8 0
BBX 1 1 0 0
BITMAP
00
ENDCHAR
STARTCHAR exclam
ENCODING 33
SWIDTH 333 0
DWIDTH 11 0
BBX 8 23 2 0
BITMAP
03
07
07
07
07
0e
0e
0e
0c
0c
18
18
18
10
30
30
20
00
00
00
e0
e0
e0
ENDCHAR
STARTCHAR quotedbl
ENCODING 34
SWIDTH 420 0
DWIDTH 14 0
BBX 10 8 4 15
BITMAP
2080
71c0
71c0
e380
e380
c300
c300
8200
ENDCHAR
STARTCHAR numbersign
ENCODING 35
SWIDTH 500 0
DWIDTH 17 0
BBX 17 23 1 0
BITMAP
018600
018600
010600
030c00
030c00
030c00
020800
3fff80
3fff80
061800
0c3000
0c3000
0c3000
186000
fffe00
fffe00
186000
30c000
30c000
30c000
608000
618000
618000
ENDCHAR
STARTCHAR dollar
ENCODING 36
SWIDTH 500 0
DWIDTH 16 0
BBX 15 28 1 -3
BITMAP
0020
0020
03f0
0e7c
0c4e
1846
1844
18c4
1c80
0e80
0f80
0780
03c0
01e0
01f0
0178
0338
023c
821c
821c
861c
c418
c438
74f0
1fc0
0800
0800
0800
ENDCHAR
STARTCHAR percent
ENCODING 37
SWIDTH 833 0
DWIDTH 27 0
BBX 24 24 2 -1
BITMAP
07c0e0
1c63c0
383fc0
703d80
602180
e06300
e06300
c0c600
c0c600
e18c00
638800
3e183e
0030e3
0031c1
006381
006301
00c703
00c703
018606
018606
03070c
02031c
0601f0
040000
ENDCHAR
STARTCHAR ampersand
ENCODING 38
SWIDTH 778 0
DWIDTH 26 0
BBX 21 23 3 0
BITMAP
003e00
006700
00c300
00c300
018300
018600
018e00
019c00
01f000
01e000
01c000
06e3f8
1ce0e0
3860c0
707180
707100
e03b00
e03e00
e01c00
e01e00
f07f10
7fe7e0
1f03c0
ENDCHAR
STARTCHAR apostrophe
ENCODING 39
SWIDTH 333 0
DWIDTH 11 0
BBX 5 8 1 15
BITMAP
38
38
38
18
10
30
60
c0
ENDCHAR
STARTCHAR parenleft
ENCODING 40
SWIDTH 333 0
DWIDTH 11 0
BBX 10 29 2 -6
BITMAP
00c0
0180
0300
0600
0c00
0c00
1800
3800
3000
7000
7000
6000
e000
e000
e000
e000
c000
c000
c000
c000
c000
c000
c000
4000
4000
6000
2000
2000
1000
ENDCHAR
STARTCHAR parenright
ENCODING 41
SWIDTH 333 0
DWIDTH 11 0
BBX 10 29 -1 -6
BITMAP
0200
0100
0100
0180
0080
0080
00c0
00c0
00c0
00c0
00c0
00c0
00c0
01c0
01c0
01c0
01c0
0180
0380
0380
0300
0700
0600
0c00
0c00
1800
3000
6000
c000
ENDCHAR
STARTCHAR asterisk
ENCODING 42
SWIDTH 500 0
DWIDTH 17 0
BBX 12 13 2 10
BITMAP
0600
0600
c630
e670
76e0
1f80
0f00
1f80
76e0
e670
c630
0600
0600
ENDCHAR
STARTCHAR plus
ENCODING 43
SWIDTH 675 0
DWIDTH 23 0
BBX 16 16 3 0
BITMAP
0180
0180
0180
0180
0180
0180
0180
ffff
ffff
0180
0180
0180
0180
0180
0180
0180
ENDCHAR
STARTCHAR comma
ENCODING 44
SWIDTH 250 0
DWIDTH 8 0
BBX 5 8 -1 -4
BITMAP
38
38
38
18
10
30
60
c0
ENDCHAR
STARTCHAR minus
ENCODING 45
SWIDTH 675 0
DWIDTH 22 0
BBX 16 2 2 7
BITMAP
ffff
ffff
ENDCHAR
STARTCHAR period
ENCODING 46
SWIDTH 250 0
DWIDTH 8 0
BBX 3 3 1 0
BITMAP
e0
e0
e0
ENDCHAR
STARTCHAR slash
ENCODING 47
SWIDTH 278 0
DWIDTH 9 0
BBX 10 24 -1 -1
BITMAP
00c0
0180
0180
0180
0300
0300
0300
0600
0600
0600
0c00
0c00
0c00
1800
1800
1800
1800
3000
3000
3000
6000
6000
6000
c000
ENDCHAR
STARTCHAR zero
ENCODING 48
SWIDTH 500 0
DWIDTH 16 0
BBX 16 23 0 0
BITMAP
0078
01dc
030e
0606
0c07
1c07
1807
3807
3007
7007
7007
700e
e00e
e00e
e01c
e01c
e018
e038
e030
6060
70e0
3b80
1f00
ENDCHAR
STARTCHAR one
ENCODING 49
SWIDTH 500 0
DWIDTH 16 0
BBX 12 23 1 0
BITMAP
0030
01f0
0070
0070
0060
00e0
00e0
00e0
01c0
01c0
01c0
0180
0380
0380
0380
0700
0700
0700
0600
0e00
0e00
1e00
ffc0
ENDCHAR
STARTCHAR two
ENCODING 50
SWIDTH 500 0
DWIDTH 16 0
BBX 16 23 -1 0
BITMAP
00f0
03fc
07fe
0c1e
180f
1007
0007
0007
000f
000e
001e
003c
0038
0070
00e0
01c0
0380
0600
0c02
1806
300c
7ffc
fff8
ENDCHAR
STARTCHAR three
ENCODING 51
SWIDTH 500 0
DWIDTH 16 0
BBX 15 23 0 0
BITMAP
00f8
03fc
041e
080e
000e
000e
000c
001c
0078
03e0
0fc0
00e0
0070
0078
0038
0038
0038
0030
c070
e060
f0c0
7f80
1e00
ENDCHAR
STARTCHAR four
ENCODING 52
SWIDTH 500 0
DWIDTH 16 0
BBX 17 23 -1 0
BITMAP
000180
000380
000700
000f00
001f00
003600
006e00
00ce00
018e00
030c00
061c00
0c1c00
181c00
303800
7fff00
fffe00
fffe00
003000
007000
007000
006000
00e000
00e000
ENDCHAR
STARTCHAR five
ENCODING 53
SWIDTH 500 0
DWIDTH 16 0
BBX 16 23 0 0
BITMAP
07ff
07fe
07fc
0c00
0c00
1800
1800
1f00
3fe0
3ff0
01f0
0078
003c
001c
001c
001c
001c
0018
c018
e030
f060
7fc0
1e00
ENDCHAR
STARTCHAR six
ENCODING 54
SWIDTH 500 0
DWIDTH 16 0
BBX 14 23 1 0
BITMAP
000c
0030
00e0
01c0
0380
0700
0e00
1c00
3be0
3f78
7c38
701c
701c
e01c
e01c
e01c
e01c
e038
e038
6070
70e0
3fc0
0f00
ENDCHAR
STARTCHAR seven
ENCODING 55
SWIDTH 500 0
DWIDTH 16 0
BBX 15 23 3 0
BITMAP
3ffe
7ffc
7ff8
8018
0030
0030
0060
00e0
00c0
0180
0180
0300
0700
0600
0e00
0c00
1800
3800
3000
7000
6000
c000
c000
ENDCHAR
STARTCHAR eight
ENCODING 56
SWIDTH 500 0
DWIDTH 16 0
BBX 15 23 0 0
BITMAP
03f0
0f1c
0e0e
1c06
1c06
1c06
1e06
0f0c
0f98
07e0
03c0
0fe0
3cf0
7078
7038
e03c
e01c
e01c
e01c
e038
7038
78f0
1fc0
ENDCHAR
STARTCHAR nine
ENCODING 57
SWIDTH 500 0
DWIDTH 16 0
BBX 14 23 1 0
BITMAP
03c0
0ff0
1c38
3818
701c
701c
e01c
e01c
e01c
e01c
e038
e038
70f8
7bf0
1f70
00e0
01c0
0380
0700
0e00
1c00
7000
c000
ENDCHAR
STARTCHAR colon
ENCODING 58
SWIDTH 333 0
DWIDTH 11 0
BBX 6 15 3 0
BITMAP
1c
1c
1c
00
00
00
00
00
00
00
00
00
e0
e0
e0
ENDCHAR
STARTCHAR semicolon
ENCODING 59
SWIDTH 333 0
DWIDTH 11 0
BBX 8 20 1 -5
BITMAP
07
07
07
00
00
00
00
00
00
00
00
00
38
38
38
18
10
30
60
c0
ENDCHAR
STARTCHAR less
ENCODING 60
SWIDTH 675 0
DWIDTH 23 0
BBX 17 17 3 0
BITMAP
000180
000780
001e00
007800
01e000
07c000
1f0000
7c0000
f00000
7c0000
1f0000
07c000
01e000
007800
001e00
000780
000180
ENDCHAR
STARTCHAR equal
ENCODING 61
SWIDTH 675 0
DWIDTH 23 0
BBX 17 9 3 4
BITMAP
ffff80
ffff80
000000
000000
000000
000000
000000
ffff80
ffff80
ENDCHAR
STARTCHAR greater
ENCODING 62
SWIDTH 675 0
DWIDTH 23 0
BBX 17 17 1 0
BITMAP
c00000
f00000
3c0000
0f0000
03c000
01f000
007c00
001f00
000780
001f00
007c00
01f000
03c000
0f0000
3c0000
f00000
c00000
ENDCHAR
STARTCHAR question
ENCODING 63
SWIDTH 500 0
DWIDTH 16 0
BBX 11 23 4 0
BITMAP
0f80
31c0
60e0
70e0
2060
00e0
00c0
01c0
0380
0700
0e00
0c00
1800
1800
3000
3000
2000
0000
0000
0000
e000
e000
e000
ENDCHAR
STARTCHAR at
ENCODING 64
SWIDTH 920 0
DWIDTH 31 0
BBX 26 27 2 -5
BITMAP
001fe000
007dfc00
01e01e00
03800700
07000380
0c000180
1c0001c0
380f60c0
3019e0c0
7030e0c0
7060e0c0
e0c0e0c0
e0c0c0c0
e180c0c0
e181c180
c381c180
e3818300
e3838700
63c78600
61fd9c00
71f9f800
3870e000
38000000
1c000000
0e000000
07c03000
00ffc000
ENDCHAR
STARTCHAR A
ENCODING 65
SWIDTH 611 0
DWIDTH 20 0
BBX 20 23 -2 0
BITMAP
000200
000600
000600
000e00
001f00
001700
003700
002700
006700
004700
00c780
018380
010380
030380
03ff80
060380
0c03c0
0c03c0
1801c0
1801c0
3001c0
7003e0
fc0ff0
ENDCHAR
STARTCHAR B
ENCODING 66
SWIDTH 611 0
DWIDTH 20 0
BBX 19 23 0 0
BITMAP
07ff00
01c3c0
01c1c0
01c0e0
03c0e0
0380e0
0380e0
0380e0
0781c0
070380
070f00
0ffc00
0f1f00
0e0780
0e0380
1e03c0
1e03c0
1c03c0
1c0380
3c0780
3c0f00
7c3c00
fff000
ENDCHAR
STARTCHAR C
ENCODING 67
SWIDTH 667 0
DWIDTH 22 0
BBX 21 23 2 0
BITMAP
003f88
00fff8
03c070
070030
0e0030
1c0020
3c0020
380000
700000
700000
f00000
e00000
e00000
e00000
e00000
e00000
e00000
f00040
700180
780300
3c0e00
1ffc00
07f000
ENDCHAR
STARTCHAR D
ENCODING 68
SWIDTH 722 0
DWIDTH 24 0
BBX 25 23 -1 0
BITMAP
03ffc000
00e0f800
00e03e00
00e00e00
01e00f00
01e00700
01c00780
01c00780
03c00380
03800780
03800380
07800780
07800780
07000700
07000700
0f000e00
0e001e00
0e001c00
1e003800
1c00f000
1c03c000
3fff0000
fff80000
ENDCHAR
STARTCHAR E
ENCODING 69
SWIDTH 611 0
DWIDTH 20 0
BBX 22 23 -1 0
BITMAP
03fffc
00f01c
00e00c
00e008
01e008
01c000
01c000
03c040
03c0c0
038080
038180
07ff80
078380
070100
070100
0f0100
0e0000
0e0000
0e0020
1e0060
1e0060
3c01c0
ffffc0
ENDCHAR
STARTCHAR F
ENCODING 70
SWIDTH 611 0
DWIDTH 20 0
BBX 22 23 0 0
BITMAP
03fffc
00f01c
00e00c
00e008
01e008
01c000
01c000
03c040
03c0c0
038080
038180
07ff80
078380
070100
070100
0f0100
0e0000
0e0000
0e0000
1e0000
1c0000
3e0000
ff8000
ENDCHAR
STARTCHAR G
ENCODING 71
SWIDTH 722 0
DWIDTH 24 0
BBX 22 23 2 0
BITMAP
003f88
00fff8
03c070
070030
0e0030
1c0020
3c0020
380000
700000
700000
f00000
e00000
e00ffc
e001f0
e000e0
e001e0
e001c0
f001c0
7003c0
780380
3c0780
1e0f80
07fc00
ENDCHAR
STARTCHAR H
ENCODING 72
SWIDTH 722 0
DWIDTH 24 0
BBX 26 23 0 0
BITMAP
03fc3fc0
00e00e00
00e00e00
01e01e00
01c01c00
01c01c00
03c03c00
03803800
03803800
03803800
07807800
07fff000
07007000
0f00f000
0f00f000
0e00e000
0e00e000
0e00e000
1e01e000
1c01c000
1c01c000
3c03c000
ff0ff000
ENDCHAR
STARTCHAR I
ENCODING 73
SWIDTH 333 0
DWIDTH 11 0
BBX 13 23 -1 0
BITMAP
07f8
01e0
01c0
01c0
03c0
0380
0380
0780
0780
0700
0700
0f00
0f00
0e00
0e00
1e00
1c00
1c00
1c00
3c00
3800
7800
fe00
ENDCHAR
STARTCHAR J
ENCODING 74
SWIDTH 444 0
DWIDTH 15 0
BBX 18 23 -1 0
BITMAP
007fc0
001f00
001e00
001e00
001c00
001c00
003c00
003c00
003800
003800
007800
007000
007000
00f000
00f000
00e000
00e000
01e000
61c000
f1c000
f38000
7b8000
3e0000
ENDCHAR
STARTCHAR K
ENCODING 75
SWIDTH 667 0
DWIDTH 22 0
BBX 23 23 0 0
BITMAP
07f9fe
01e078
01c060
01c0c0
03c180
038300
038600
078c00
079800
077000
07e000
0ff000
0f7800
0e3800
0e3c00
1e1c00
1c1e00
1c0f00
1c0780
3c0780
3c03c0
3803e0
ff07f8
ENDCHAR
STARTCHAR L
ENCODING 76
SWIDTH 556 0
DWIDTH 18 0
BBX 19 23 -1 0
BITMAP
07f800
01e000
01c000
01c000
03c000
038000
038000
078000
078000
070000
070000
0f0000
0f0000
0e0000
0e0000
1e0000
1c0000
1c0020
1c0060
3c00c0
3c01c0
7fff80
ffff80
ENDCHAR
STARTCHAR M
ENCODING 77
SWIDTH 833 0
DWIDTH 28 0
BBX 30 23 0 0
BITMAP
07e001fc
01e001f0
01e003e0
01e003e0
036007c0
03700dc0
037009c0
03701bc0
06703380
06706380
06706780
0c70c780
0c70c700
0c718700
0c730f00
18330f00
18360e00
183c0e00
183c1e00
30381c00
30301c00
30303e00
fe20ff80
ENDCHAR
STARTCHAR N
ENCODING 78
SWIDTH 667 0
DWIDTH 22 0
BBX 25 23 -1 0
BITMAP
07c03f80
01e00e00
01e00c00
01e00c00
01700c00
01700800
03780800
03381800
02381800
021c1000
061c1000
061e3000
040e3000
040e2000
0c072000
0c076000
08076000
0803e000
1803c000
1801c000
1801c000
3801c000
fe00c000
ENDCHAR
STARTCHAR O
ENCODING 79
SWIDTH 722 0
DWIDTH 24 0
BBX 19 23 3 0
BITMAP
007e00
01c780
0301c0
0701c0
0e00e0
1e00e0
1c00e0
3800e0
7800e0
7801e0
7001e0
f001e0
f001c0
f003c0
e003c0
e00380
e00700
e00f00
e00e00
701c00
703800
3ce000
0f8000
ENDCHAR
STARTCHAR P
ENCODING 80
SWIDTH 611 0
DWIDTH 20 0
BBX 21 23 0 0
BITMAP
03ff80
00f1e0
00e070
00e070
01e038
01c038
01c038
03c038
03c070
038070
0381e0
078780
07fe00
070000
070000
0f0000
0e0000
0e0000
0e0000
1e0000
1c0000
3e0000
ff8000
ENDCHAR
STARTCHAR Q
ENCODING 81
SWIDTH 722 0
DWIDTH 24 0
BBX 20 29 2 -6
BITMAP
003f00
00e3c0
0180e0
038060
070070
0f0070
0e0070
1c0070
3c0070
3c00f0
3800f0
7800f0
7800e0
7801e0
7001e0
7001c0
700380
700780
700700
380e00
381c00
1e7000
07c000
060000
0c0000
1bc020
3ff060
79ffc0
c03f00
ENDCHAR
STARTCHAR R
ENCODING 82
SWIDTH 611 0
DWIDTH 20 0
BBX 20 23 -1 0
BITMAP
03ff80
00f3e0
00e0e0
00e070
01e070
01c070
01c070
03c070
03c0e0
0380e0
0383c0
07ff00
07fc00
071c00
071c00
0f0e00
0e0e00
0e0700
0e0700
1e0780
1c0380
3e03c0
ff83f0
ENDCHAR
STARTCHAR S
ENCODING 83
SWIDTH 500 0
DWIDTH 17 0
BBX 16 23 2 0
BITMAP
03f1
071f
0e0e
0c06
1c06
1c04
1c04
1e00
0f00
0f80
07c0
03e0
01e0
00f0
0078
0078
8038
8038
8038
c070
c070
f1e0
bf80
ENDCHAR
STARTCHAR T
ENCODING 84
SWIDTH 556 0
DWIDTH 18 0
BBX 18 23 3 0
BITMAP
ffffc0
e1e1c0
c1e0c0
81e0c0
81c080
01c000
03c000
03c000
038000
038000
078000
078000
070000
070000
0f0000
0f0000
0e0000
0e0000
1e0000
1e0000
1e0000
3e0000
ff8000
ENDCHAR
STARTCHAR U
ENCODING 85
SWIDTH 722 0
DWIDTH 24 0
BBX 23 23 3 0
BITMAP
7fc0fe
1f0038
0e0018
0e0010
1e0030
1c0030
1c0020
3c0020
380060
380040
380040
7800c0
7000c0
700080
f00180
f00180
e00100
e00300
e00300
700600
781c00
3ff800
0fe000
ENDCHAR
STARTCHAR V
ENCODING 86
SWIDTH 611 0
DWIDTH 20 0
BBX 21 23 2 0
BITMAP
ff01f8
7c0060
380040
3800c0
380180
380180
1c0300
1c0200
1c0600
1c0c00
1e0c00
0e1800
0e1000
0e3000
0e6000
0e6000
0ec000
0f8000
078000
070000
060000
060000
040000
ENDCHAR
STARTCHAR W
ENCODING 87
SWIDTH 833 0
DWIDTH 28 0
BBX 31 23 1 0
BITMAP
ff0fe0fe
3c038038
1c038030
1c038060
1c038060
1c0380c0
1c0780c0
1c058180
1c0d8180
1c09c300
0e19c200
0e19c600
0e31c400
0e31cc00
0e61c800
0e41d800
0ec0f000
0780f000
0700e000
0700e000
0600c000
0600c000
04008000
ENDCHAR
STARTCHAR X
ENCODING 88
SWIDTH 611 0
DWIDTH 20 0
BBX 23 23 -1 0
BITMAP
1ff0fe
03e038
03c030
01c060
01e0c0
01e180
00e380
00f300
007600
007c00
007800
003800
003c00
007c00
00de00
019e00
030e00
070f00
060700
0c0700
180780
3807c0
fe1ff0
ENDCHAR
STARTCHAR Y
ENCODING 89
SWIDTH 556 0
DWIDTH 19 0
BBX 20 23 1 0
BITMAP
7f87f0
1e01c0
1e0300
1e0300
0e0600
0e0c00
0f1800
0f1800
073000
076000
07e000
03c000
03c000
038000
038000
078000
070000
070000
070000
0e0000
0e0000
1e0000
ffc000
ENDCHAR
STARTCHAR Z
ENCODING 90
SWIDTH 556 0
DWIDTH 19 0
BBX 20 23 0 0
BITMAP
07fff0
0ffff0
0c01e0
0803c0
080780
000780
000f00
001e00
003c00
003c00
007800
00f000
01e000
01e000
03c000
078000
0f0000
0f0000
1e0040
3c0040
7800c0
ffffc0
ffff80
ENDCHAR
STARTCHAR bracketleft
ENCODING 91
SWIDTH 389 0
DWIDTH 13 0
BBX 12 29 2 -6
BITMAP
03f0
0300
0300
0700
0700
0700
0600
0600
0e00
0e00
0c00
0c00
1c00
1c00
1c00
1800
3800
3800
3800
3000
7000
7000
7000
6000
6000
e000
e000
e000
fc00
ENDCHAR
STARTCHAR backslash
ENCODING 92
SWIDTH 278 0
DWIDTH 9 0
BBX 9 23 0 0
BITMAP
c000
c000
4000
6000
6000
2000
3000
3000
1000
1800
1800
0800
0c00
0c00
0400
0600
0600
0200
0300
0300
0100
0180
0180
ENDCHAR
STARTCHAR bracketright
ENCODING 93
SWIDTH 389 0
DWIDTH 13 0
BBX 12 29 -1 -6
BITMAP
03f0
0030
0070
0070
0070
0060
0060
00e0
00e0
00e0
00c0
01c0
01c0
01c0
0180
0380
0380
0380
0300
0300
0700
0700
0600
0600
0e00
0e00
0e00
1c00
fc00
ENDCHAR
STARTCHAR asciicircum
ENCODING 94
SWIDTH 422 0
DWIDTH 14 0
BBX 15 16 -1 7
BITMAP
0380
0380
07c0
06c0
0ee0
0c60
1c70
1830
3838
3018
3018
701c
600c
e00e
c006
c006
ENDCHAR
STARTCHAR underscore
ENCODING 95
SWIDTH 500 0
DWIDTH 16 0
BBX 16 2 0 -5
BITMAP
ffff
ffff
ENDCHAR
STARTCHAR grave
ENCODING 96
SWIDTH 333 0
DWIDTH 11 0
BBX 6 6 5 17
BITMAP
c0
e0
70
38
0c
04
ENDCHAR
STARTCHAR a
ENCODING 97
SWIDTH 500 0
DWIDTH 16 0
BBX 15 15 1 0
BITMAP
01ec
03bc
0e1c
1c1c
181c
3818
7018
7038
e038
e030
e070
e0f2
61b4
733c
1e18
ENDCHAR
STARTCHAR b
ENCODING 98
SWIDTH 500 0
DWIDTH 16 0
BBX 15 23 1 0
BITMAP
0300
1f00
0700
0600
0600
0e00
0e00
0c00
1c78
19fc
1f1e
1e0e
3c0e
380e
380e
300c
701c
7018
6038
e070
e0e0
f380
7f00
ENDCHAR
STARTCHAR c
ENCODING 99
SWIDTH 444 0
DWIDTH 15 0
BBX 13 15 2 0
BITMAP
01e0
0630
0c38
1838
3010
3000
7000
6000
e000
e000
e000
e020
e0c0
7380
3e00
ENDCHAR
STARTCHAR d
ENCODING 100
SWIDTH 500 0
DWIDTH 16 0
BBX 16 23 1 0
BITMAP
0003
001f
0007
0007
0006
0006
0006
000e
01ec
033c
0e1c
1c1c
181c
3818
7018
7038
e038
e030
e070
e0f2
61b4
733c
1e18
ENDCHAR
STARTCHAR e
ENCODING 101
SWIDTH 444 0
DWIDTH 15 0
BBX 13 15 2 0
BITMAP
01e0
0670
0c38
1838
3070
30e0
71c0
7700
fc00
e000
e000
e020
e0c0
7380
3e00
ENDCHAR
STARTCHAR f
ENCODING 102
SWIDTH 278 0
DWIDTH 9 0
BBX 19 30 -4 -7
BITMAP
0003c0
0006e0
000ce0
001cc0
001800
003800
003000
003000
03ff00
007000
006000
006000
00e000
00e000
00e000
00c000
01c000
01c000
01c000
018000
018000
038000
038000
030000
030000
070000
660000
ee0000
ec0000
780000
ENDCHAR
STARTCHAR g
ENCODING 103
SWIDTH 500 0
DWIDTH 16 0
BBX 16 22 0 -7
BITMAP
01f0
073f
0e1f
0c1c
1c1c
1c1c
1c38
0c38
0e70
07c0
0c00
1800
1f00
0fc0
3fe0
61f0
c070
c030
c030
6020
78e0
1f80
ENDCHAR
STARTCHAR h
ENCODING 104
SWIDTH 500 0
DWIDTH 16 0
BBX 15 23 1 0
BITMAP
0300
1f00
0700
0700
0700
0e00
0e00
0e00
0e78
1cfc
1d9c
1a1c
3c1c
381c
381c
3838
7038
7038
7038
7072
e074
e07c
e038
ENDCHAR
STARTCHAR i
ENCODING 105
SWIDTH 278 0
DWIDTH 9 0
BBX 7 23 2 0
BITMAP
0e
0e
0e
00
00
00
00
00
0c
7c
1c
18
38
38
30
70
70
70
60
e4
e8
f8
70
ENDCHAR
STARTCHAR j
ENCODING 106
SWIDTH 278 0
DWIDTH 9 0
BBX 14 30 -4 -7
BITMAP
001c
001c
001c
0000
0000
0000
0000
0000
0038
00f8
0030
0030
0030
0070
0070
0060
0060
00e0
00e0
00c0
00c0
01c0
01c0
01c0
0180
0380
6300
e700
ee00
7800
ENDCHAR
STARTCHAR k
ENCODING 107
SWIDTH 444 0
DWIDTH 15 0
BBX 15 23 1 0
BITMAP
0300
1f00
0700
0600
0e00
0e00
0c00
0c00
1c7e
1c18
1830
3860
38c0
3980
3b00
7f00
7f00
7380
73c0
61c4
e1e8
e0f8
e070
ENDCHAR
STARTCHAR l
ENCODING 108
SWIDTH 278 0
DWIDTH 9 0
BBX 8 23 2 0
BITMAP
03
1f
07
06
0e
0e
0c
0c
1c
1c
18
38
38
38
30
70
70
60
60
e4
e8
f8
70
ENDCHAR
STARTCHAR m
ENCODING 109
SWIDTH 722 0
DWIDTH 24 0
BBX 23 15 1 0
BITMAP
0c7838
7cfcfc
1d9d9c
1a1e1c
3c1c1c
381838
383838
383838
703838
703038
707070
707072
e07074
e0e07c
e0e038
ENDCHAR
STARTCHAR n
ENCODING 110
SWIDTH 500 0
DWIDTH 16 0
BBX 15 15 1 0
BITMAP
0c78
7cfc
1d1c
1a1c
3c1c
381c
3838
3838
7038
7038
7070
6072
e074
e07c
e038
ENDCHAR
STARTCHAR o
ENCODING 111
SWIDTH 500 0
DWIDTH 17 0
BBX 15 15 1 0
BITMAP
01f0
039c
0e0c
1c0e
180e
380e
700e
701c
e01c
e038
e030
e070
60e0
7380
1f00
ENDCHAR
STARTCHAR p
ENCODING 112
SWIDTH 500 0
DWIDTH 17 0
BBX 19 22 -2 -7
BITMAP
018780
0f9fc0
03b1e0
03e0e0
03c0e0
0380e0
0380e0
0300c0
0701c0
070180
060380
0e0700
0e0e00
0f3800
0ff000
1c0000
1c0000
180000
180000
380000
380000
fe0000
ENDCHAR
STARTCHAR q
ENCODING 113
SWIDTH 500 0
DWIDTH 17 0
BBX 14 22 2 -7
BITMAP
01ec
073c
0e1c
1c1c
381c
3018
7018
6038
e038
e030
e070
e0f0
71e0
7ee0
1ce0
00e0
00e0
00c0
00c0
01c0
01c0
07f0
ENDCHAR
STARTCHAR r
ENCODING 114
SWIDTH 389 0
DWIDTH 13 0
BBX 12 15 2 0
BITMAP
0c60
7cf0
19f0
1b30
1e00
3c00
3800
3800
3000
7000
7000
7000
6000
e000
e000
ENDCHAR
STARTCHAR s
ENCODING 115
SWIDTH 389 0
DWIDTH 13 0
BBX 12 15 1 0
BITMAP
07d0
0e70
1c30
1c10
1c10
1e00
0e00
0700
0780
0380
81c0
81c0
c1c0
e380
bf00
ENDCHAR
STARTCHAR t
ENCODING 116
SWIDTH 278 0
DWIDTH 9 0
BBX 8 19 2 0
BITMAP
04
04
0c
1c
7f
1c
18
38
38
38
30
70
70
60
60
e4
e8
f8
70
ENDCHAR
STARTCHAR u
ENCODING 117
SWIDTH 500 0
DWIDTH 17 0
BBX 15 15 1 0
BITMAP
1c1c
fc1c
1c1c
381c
3838
3838
3838
3838
7038
7070
7070
70f0
71b2
7f3c
3c18
ENDCHAR
STARTCHAR v
ENCODING 118
SWIDTH 444 0
DWIDTH 15 0
BBX 14 15 0 0
BITMAP
1c38
fc3c
3c1c
0c0c
0e0c
0e18
0e18
0630
0670
0660
06e0
07c0
0780
0700
0600
ENDCHAR
STARTCHAR w
ENCODING 119
SWIDTH 667 0
DWIDTH 22 0
BBX 21 15 0 0
BITMAP
180c70
fc1c78
3c1c38
1c3c18
1c3c38
0c6c30
0ccc30
0ccc60
0d8ce0
0d0cc0
0f0d80
0e0f80
0c0f00
0c0e00
080c00
ENDCHAR
STARTCHAR x
ENCODING 120
SWIDTH 444 0
DWIDTH 15 0
BBX 16 15 -1 0
BITMAP
0607
3e0f
0f18
0730
0360
03e0
01c0
01c0
03c0
03e0
06e0
0cf2
1874
f07c
e038
ENDCHAR
STARTCHAR y
ENCODING 121
SWIDTH 444 0
DWIDTH 15 0
BBX 16 22 -1 -7
BITMAP
0707
3f07
0f03
0303
0383
0386
0386
018c
019c
0198
01b8
01f0
01e0
01e0
01c0
0180
0180
0300
0600
6e00
fc00
7000
ENDCHAR
STARTCHAR z
ENCODING 122
SWIDTH 389 0
DWIDTH 13 0
BBX 14 15 -1 0
BITMAP
0ffc
1ffc
1838
3070
00e0
00c0
0180
0300
0600
0e00
1c00
3830
7060
ffe0
ffc0
ENDCHAR
STARTCHAR braceleft
ENCODING 123
SWIDTH 400 0
DWIDTH 13 0
BBX 11 29 2 -6
BITMAP
01e0
03e0
0300
0600
0600
0600
0600
0c00
0c00
0c00
0c00
1800
3800
f000
c000
6000
3000
3000
3000
3000
3000
6000
6000
6000
6000
6000
6000
3000
3c00
ENDCHAR
STARTCHAR bar
ENCODING 124
SWIDTH 275 0
DWIDTH 9 0
BBX 9 29 0 -6
BITMAP
0180
0180
0100
0100
0300
0200
0200
0600
0600
0400
0400
0c00
0800
0800
1800
1800
1000
1000
3000
2000
2000
6000
6000
4000
4000
c000
8000
8000
8000
ENDCHAR
STARTCHAR braceright
ENCODING 125
SWIDTH 400 0
DWIDTH 13 0
BBX 11 29 -1 -6
BITMAP
0780
0180
00c0
00c0
00c0
00c0
00c0
00c0
0180
0180
0180
0180
0180
00c0
0060
01e0
0380
0300
0600
0600
0600
0600
0c00
0c00
0c00
0c00
1800
f800
f000
ENDCHAR
STARTCHAR asciitilde
ENCODING 126
SWIDTH 541 0
DWIDTH 18 0
BBX 16 4 1 6
BITMAP
1e03
7f87
e1fe
c0f8
ENDCHAR
STARTCHAR nobreakspace
ENCODING 160
SWIDTH 250 0
DWIDTH 8 0
BBX 1 1 0 0
BITMAP
00
ENDCHAR
STARTCHAR Aogonek
ENCODING 161
SWIDTH 611 0
DWIDTH 20 0
BBX 20 31 -2 -8
BITMAP
000200
000600
000600
000e00
001f00
001700
003700
002700
006700
004700
00c780
018380
010380
030380
03ff80
060380
0c03c0
0c03c0
1801c0
1801c0
3001c0
7003e0
fc0ff0
004000
008000
018000
030000
030000
038800
01f000
00e000
ENDCHAR
STARTCHAR breve
ENCODING 162
SWIDTH 333 0
DWIDTH 11 0
BBX 8 4 3 17
BITMAP
81
c3
7e
3c
ENDCHAR
STARTCHAR Lstroke
ENCODING 163
SWIDTH 556 0
DWIDTH 18 0
BBX 19 23 -1 0
BITMAP
07f800
01e000
01c000
01c000
03c000
038000
038000
079800
07b000
07e000
07c000
0f0000
3f0000
7e0000
4e0000
1e0000
1c0000
1c0020
1c0060
3c00c0
3c01c0
7fff80
ffff80
ENDCHAR
STARTCHAR currency
ENCODING 164
SWIDTH 500 0
DWIDTH 17 0
BBX 15 15 1 4
BITMAP
600c
f7de
fffe
7ffc
3c78
783c
701c
701c
701c
783c
3c78
7ffc
fffe
f7de
600c
ENDCHAR
STARTCHAR Lcaron
ENCODING 165
SWIDTH 556 0
DWIDTH 18 0
BBX 19 25 -1 0
BITMAP
0000e0
0000e0
07f8e0
01e060
01c040
01c0c0
03c180
038300
038000
078000
078000
070000
070000
0f0000
0f0000
0e0000
0e0000
1e0000
1c0000
1c0020
1c0060
3c00c0
3c01c0
7fff80
ffff80
ENDCHAR
STARTCHAR Sacute
ENCODING 166
SWIDTH 500 0
DWIDTH 17 0
BBX 16 30 2 0
BITMAP
0003
0007
000e
001c
0030
0020
0000
03f1
071f
0e0e
0c06
1c06
1c04
1c04
1e00
0f00
0f80
07c0
03e0
01e0
00f0
0078
0078
8038
8038
8038
c070
c070
f1e0
bf80
ENDCHAR
STARTCHAR section
ENCODING 167
SWIDTH 500 0
DWIDTH 17 0
BBX 13 28 2 -4
BITMAP
01f0
03b8
0638
0e10
0c00
0e00
0600
0700
0380
1f80
3bc0
70e0
60e0
6070
7030
3830
3870
1ee0
0fc0
0e00
0700
0300
0380
0180
4380
e300
ee00
7c00
ENDCHAR
STARTCHAR diaeresis
ENCODING 168
SWIDTH 333 0
DWIDTH 11 0
BBX 9 3 4 18
BITMAP
e380
e380
e380
ENDCHAR
STARTCHAR Scaron
ENCODING 169
SWIDTH 500 0
DWIDTH 17 0
BBX 17 30 2 0
BITMAP
018180
01c300
00c600
00ec00
007800
007000
000000
03f100
071f00
0e0e00
0c0600
1c0600
1c0400
1c0400
1e0000
0f0000
0f8000
07c000
03e000
01e000
00f000
007800
007800
803800
803800
803800
c07000
c07000
f1e000
bf8000
ENDCHAR
STARTCHAR Scedilla
ENCODING 170
SWIDTH 500 0
DWIDTH 17 0
BBX 16 31 2 -8
BITMAP
03f1
071f
0e0e
0c06
1c06
1c04
1c04
1e00
0f00
0f80
07c0
03e0
01e0
00f0
0078
0078
8038
8038
8038
c070
c070
f1e0
bf80
0080
0180
0300
07c0
00e0
0060
08e0
07c0
ENDCHAR
STARTCHAR Tcaron
ENCODING 171
SWIDTH 556 0
DWIDTH 18 0
BBX 18 30 3 0
BITMAP
030300
038600
018c00
01d800
00f000
00e000
000000
ffffc0
e1e1c0
c1e0c0
81e0c0
81c080
01c000
03c000
03c000
038000
038000
078000
078000
070000
070000
0f0000
0f0000
0e0000
0e0000
1e0000
1e0000
1e0000
3e0000
ff8000
ENDCHAR
STARTCHAR Zacute
ENCODING 172
SWIDTH 556 0
DWIDTH 19 0
BBX 20 30 0 0
BITMAP
0000c0
0001c0
000380
000700
000c00
000800
000000
07fff0
0ffff0
0c01e0
0803c0
080780
000780
000f00
001e00
003c00
003c00
007800
00f000
01e000
01e000
03c000
078000
0f0000
0f0000
1e0040
3c0040
7800c0
ffffc0
ffff80
ENDCHAR
STARTCHAR hyphen
ENCODING 173
SWIDTH 333 0
DWIDTH 11 0
BBX 7 2 2 6
BITMAP
fe
fe
ENDCHAR
STARTCHAR Zcaron
ENCODING 174
SWIDTH 556 0
DWIDTH 19 0
BBX 20 30 0 0
BITMAP
006060
0070c0
003180
003b00
001e00
001c00
000000
07fff0
0ffff0
0c01e0
0803c0
080780
000780
000f00
001e00
003c00
003c00
007800
00f000
01e000
01e000
03c000
078000
0f0000
0f0000
1e0040
3c0040
7800c0
ffffc0
ffff80
ENDCHAR
STARTCHAR Zabovedot
ENCODING 175
SWIDTH 556 0
DWIDTH 19 0
BBX 20 28 0 0
BITMAP
000c00
001e00
001e00
000c00
000000
07fff0
0ffff0
0c01e0
0803c0
080780
000780
000f00
001e00
003c00
003c00
007800
00f000
01e000
01e000
03c000
078000
0f0000
0f0000
1e0040
3c0040
7800c0
ffffc0
ffff80
ENDCHAR
STARTCHAR degree
ENCODING 176
SWIDTH 400 0
DWIDTH 13 0
BBX 9 8 2 15
BITMAP
3e00
6300
c180
c180
c180
c180
6300
3e00
ENDCHAR
STARTCHAR aogonek
ENCODING 177
SWIDTH 500 0
DWIDTH 16 0
BBX 15 23 1 -8
BITMAP
01ec
03bc
0e1c
1c1c
181c
3818
7018
7038
e038
e030
e070
e0f2
61b4
733c
1e18
0100
0200
0600
0c00
0c00
0e20
07c0
0380
ENDCHAR
STARTCHAR ogonek
ENCODING 178
SWIDTH 333 0
DWIDTH 11 0
BBX 7 8 -1 -5
BITMAP
10
20
60
c0
c0
e2
7c
38
ENDCHAR
STARTCHAR lstroke
ENCODING 179
SWIDTH 278 0
DWIDTH 9 0
BBX 9 23 1 0
BITMAP
0700
1f00
0700
0600
0e00
0e00
0c00
0d80
1f80
1e00
1800
f800
f800
3800
3000
7000
7000
6000
6000
e400
e800
f800
7000
ENDCHAR
STARTCHAR acute
ENCODING 180
SWIDTH 333 0
DWIDTH 11 0
BBX 6 6 7 17
BITMAP
0c
1c
38
70
c0
80
ENDCHAR
STARTCHAR lcaron
ENCODING 181
SWIDTH 450 0
DWIDTH 15 0
BBX 14 25 2 0
BITMAP
001c
001c
031c
1f0c
0708
0618
0e30
0e60
0c00
0c00
1c00
1c00
1800
3800
3800
3800
3000
7000
7000
6000
6000
e400
e800
f800
7000
ENDCHAR
STARTCHAR sacute
ENCODING 182
SWIDTH 389 0
DWIDTH 13 0
BBX 13 22 1 0
BITMAP
0018
0038
0070
00e0
0180
0100
0000
07d0
0e70
1c30
1c10
1c10
1e00
0e00
0700
0780
0380
81c0
81c0
c1c0
e380
bf00
ENDCHAR
STARTCHAR caron
ENCODING 183
SWIDTH 333 0
DWIDTH 11 0
BBX 10 6 5 16
BITMAP
c0c0
e180
6300
7600
3c00
3800
ENDCHAR
STARTCHAR cedilla
ENCODING 184
SWIDTH 333 0
DWIDTH 11 0
BBX 7 8 1 -7
BITMAP
08
18
30
7c
0e
06
8e
7c
ENDCHAR
STARTCHAR scaron
ENCODING 185
SWIDTH 389 0
DWIDTH 13 0
BBX 14 22 1 0
BITMAP
0c0c
0e18
0630
0760
03c0
0380
0000
07d0
0e70
1c30
1c10
1c10
1e00
0e00
0700
0780
0380
81c0
81c0
c1c0
e380
bf00
ENDCHAR
STARTCHAR scedilla
ENCODING 186
SWIDTH 389 0
DWIDTH 13 0
BBX 12 23 1 -8
BITMAP
07d0
0e70
1c30
1c10
1c10
1e00
0e00
0700
0780
0380
81c0
81c0
c1c0
e380
bf00
0200
0600
0c00
1f00
0380
0180
2380
1f00
ENDCHAR
STARTCHAR tcaron
ENCODING 187
SWIDTH 390 0
DWIDTH 13 0
BBX 12 24 2 0
BITMAP
0070
0070
0070
0030
0020
0460
04c0
0d80
1c00
7f00
1c00
1800
3800
3800
3800
3000
7000
7000
6000
6000
e400
e800
f800
7000
ENDCHAR
STARTCHAR zacute
ENCODING 188
SWIDTH 389 0
DWIDTH 13 0
BBX 14 22 -1 0
BITMAP
000c
001c
0038
0070
00c0
0080
0000
0ffc
1ffc
1838
3070
00e0
00c0
0180
0300
0600
0e00
1c00
3830
7060
ffe0
ffc0
ENDCHAR
STARTCHAR doubleacute
ENCODING 189
SWIDTH 333 0
DWIDTH 11 0
BBX 10 8 2 17
BITMAP
18c0
39c0
3180
7380
6300
6300
c600
c600
ENDCHAR
STARTCHAR zcaron
ENCODING 190
SWIDTH 389 0
DWIDTH 13 0
BBX 15 22 -1 0
BITMAP
0606
070c
0318
03b0
01e0
01c0
0000
0ffc
1ffc
1838
3070
00e0
00c0
0180
0300
0600
0e00
1c00
3830
7060
ffe0
ffc0
ENDCHAR
STARTCHAR zabovedot
ENCODING 191
SWIDTH 389 0
DWIDTH 13 0
BBX 14 20 -1 0
BITMAP
00c0
01e0
01e0
00c0
0000
0ffc
1ffc
1838
3070
00e0
00c0
0180
0300
0600
0e00
1c00
3830
7060
ffe0
ffc0
ENDCHAR
STARTCHAR Racute
ENCODING 192
SWIDTH 611 0
DWIDTH 20 0
BBX 20 30 -1 0
BITMAP
000060
0000e0
0001c0
000380
000600
000400
000000
03ff80
00f3e0
00e0e0
00e070
01e070
01c070
01c070
03c070
03c0e0
0380e0
0383c0
07ff00
07fc00
071c00
071c00
0f0e00
0e0e00
0e0700
0e0700
1e0780
1c0380
3e03c0
ff83f0
ENDCHAR
STARTCHAR Aacute
ENCODING 193
SWIDTH 611 0
DWIDTH 20 0
BBX 20 30 -2 0
BITMAP
000060
0000e0
0001c0
000380
000700
000600
000000
000200
000600
000600
000e00
001f00
001700
003700
002700
006700
004700
00c780
018380
010380
030380
03ff80
060380
0c03c0
0c03c0
1801c0
1801c0
3001c0
7003e0
fc0ff0
ENDCHAR
STARTCHAR Acircumflex
ENCODING 194
SWIDTH 611 0
DWIDTH 20 0
BBX 20 30 -2 0
BITMAP
000380
000780
000dc0
0018c0
0030e0
006060
000000
000200
000600
000600
000e00
001f00
001700
003700
002700
006700
004700
00c780
018380
010380
030380
03ff80
060380
0c03c0
0c03c0
1801c0
1801c0
3001c0
7003e0
fc0ff0
ENDCHAR
STARTCHAR Abreve
ENCODING 195
SWIDTH 611 0
DWIDTH 20 0
BBX 20 28 -2 0
BITMAP
001020
001860
000fc0
000780
000000
000200
000600
000600
000e00
001f00
001700
003700
002700
006700
004700
00c780
018380
010380
030380
03ff80
060380
0c03c0
0c03c0
1801c0
1801c0
3001c0
7003e0
fc0ff0
ENDCHAR
STARTCHAR Adiaeresis
ENCODING 196
SWIDTH 611 0
DWIDTH 20 0
BBX 20 27 -2 0
BITMAP
0071c0
0071c0
0071c0
000000
000200
000600
000600
000e00
001f00
001700
003700
002700
006700
004700
00c780
018380
010380
030380
03ff80
060380
0c03c0
0c03c0
1801c0
1801c0
3001c0
7003e0
fc0ff0
ENDCHAR
STARTCHAR Lacute
ENCODING 197
SWIDTH 556 0
DWIDTH 18 0
BBX 19 30 -1 0
BITMAP
000600
000e00
001c00
003800
006000
004000
000000
07f800
01e000
01c000
01c000
03c000
038000
038000
078000
078000
070000
070000
0f0000
0f0000
0e0000
0e0000
1e0000
1c0000
1c0020
1c0060
3c00c0
3c01c0
7fff80
ffff80
ENDCHAR
STARTCHAR Cacute
ENCODING 198
SWIDTH 667 0
DWIDTH 22 0
BBX 21 30 2 0
BITMAP
000030
000070
0000e0
0001c0
000300
000200
000000
003f88
00fff8
03c070
070030
0e0030
1c0020
3c0020
380000
700000
700000
f00000
e00000
e00000
e00000
e00000
e00000
e00000
f00040
700180
780300
3c0e00
1ffc00
07f000
ENDCHAR
STARTCHAR Ccedilla
ENCODING 199
SWIDTH 667 0
DWIDTH 22 0
BBX 22 30 1 -7
BITMAP
003fc4
00fffc
03c03c
070018
0e0018
1c0018
3c0010
380000
700000
700000
f00000
e00000
e00000
e00000
e00000
e00000
e00000
f00040
700180
780300
3c0e00
1ffc00
07f000
030000
060000
0f8000
01c000
00c000
11c000
0f8000
ENDCHAR
STARTCHAR Ccaron
ENCODING 200
SWIDTH 667 0
DWIDTH 22 0
BBX 21 30 2 0
BITMAP
001818
001c30
000c60
000ec0
000780
000700
000000
003f88
00fff8
03c070
070030
0e0030
1c0020
3c0020
380000
700000
700000
f00000
e00000
e00000
e00000
e00000
e00000
e00000
f00040
700180
780300
3c0e00
1ffc00
07f000
ENDCHAR
STARTCHAR Eacute
ENCODING 201
SWIDTH 611 0
DWIDTH 20 0
BBX 21 30 0 0
BITMAP
000030
000070
0000e0
0001c0
000380
000600
000000
07fff8
01e038
01c018
01c010
03c010
038000
038000
078080
078180
070100
070300
0fff00
0f0700
0e0200
0e0200
1e0200
1c0000
1c0000
1c0040
3c00c0
3c00c0
780380
ffff80
ENDCHAR
STARTCHAR Eogonek
ENCODING 202
SWIDTH 611 0
DWIDTH 20 0
BBX 22 31 -1 -8
BITMAP
03fffc
00f01c
00e00c
00e008
01e008
01c000
01c000
03c040
03c0c0
038080
038180
07ff80
078380
070100
070100
0f0100
0e0000
0e0000
0e0020
1e0060
1e0060
3c01c0
ffffc0
002000
004000
00c000
018000
018000
01c400
00f800
007000
ENDCHAR
STARTCHAR Ediaeresis
ENCODING 203
SWIDTH 611 0
DWIDTH 20 0
BBX 21 28 0 0
BITMAP
0038e0
0038e0
0038e0
000000
000000
07fff8
01e038
01c018
01c010
03c010
038000
038000
078080
078180
070100
070300
0fff00
0f0700
0e0200
0e0200
1e0200
1c0000
1c0000
1c0040
3c00c0
3c00c0
780380
ffff80
ENDCHAR
STARTCHAR Ecaron
ENCODING 204
SWIDTH 611 0
DWIDTH 20 0
BBX 22 30 -1 0
BITMAP
001818
001c30
000c60
000ec0
000780
000700
000000
03fffc
00f01c
00e00c
00e008
01e008
01c000
01c000
03c040
03c0c0
038080
038180
07ff80
078380
070100
070100
0f0100
0e0000
0e0000
0e0020
1e0060
1e0060
3c01c0
ffffc0
ENDCHAR
STARTCHAR Iacute
ENCODING 205
SWIDTH 333 0
DWIDTH 11 0
BBX 15 30 0 0
BITMAP
0006
000e
001c
0038
0070
00e0
0000
07f8
01e0
01c0
01c0
03c0
0380
0380
0780
0780
0700
0700
0f00
0f00
0e00
0e00
1e00
1c00
1c00
1c00
3800
3800
7800
fe00
ENDCHAR
STARTCHAR Icircumflex
ENCODING 206
SWIDTH 333 0
DWIDTH 11 0
BBX 14 30 0 0
BITMAP
0070
00f0
01b8
0318
061c
0c0c
0000
07f8
01e0
01c0
01c0
03c0
0380
0380
0780
0780
0700
0700
0f00
0f00
0e00
0e00
1e00
1c00
1c00
1c00
3800
3800
7800
fe00
ENDCHAR
STARTCHAR Dcaron
ENCODING 207
SWIDTH 722 0
DWIDTH 24 0
BBX 25 30 -1 0
BITMAP
000c0c00
000e1800
00063000
00076000
0003c000
00038000
00000000
03ffc000
00e0f800
00e03e00
00e00e00
01e00f00
01e00700
01c00780
01c00780
03c00380
03800780
03800380
07800780
07800780
07000700
07000700
0f000e00
0e001e00
0e001c00
1e003800
1c00f000
1c03c000
3fff0000
fff80000
ENDCHAR
STARTCHAR Dstroke
ENCODING 208
SWIDTH 722 0
DWIDTH 23 0
BBX 24 23 0 0
BITMAP
07ff80
01ffe0
01c0f8
01c03c
03c01e
03c00e
03800f
038007
078007
070007
070007
3ff807
3ff007
0e000e
0e000e
1e001c
1c003c
1c0078
3c00f0
3803e0
380f80
7ffe00
fff000
ENDCHAR
STARTCHAR Nacute
ENCODING 209
SWIDTH 667 0
DWIDTH 22 0
BBX 25 30 -1 0
BITMAP
00001800
00003800
00007000
0000e000
00018000
00010000
00000000
07c03f80
01e00e00
01e00c00
01e00c00
01700c00
01700800
03780800
03381800
02381800
021c1000
061c1000
061e3000
040e3000
040e2000
0c072000
0c076000
08076000
0803e000
1803c000
1801c000
1801c000
3801c000
fe00c000
ENDCHAR
STARTCHAR Ncaron
ENCODING 210
SWIDTH 667 0
DWIDTH 22 0
BBX 25 30 -1 0
BITMAP
000c0c00
000e1800
00063000
00076000
0003c000
00038000
00000000
07c03f80
01e00e00
01e00c00
01e00c00
01700c00
01700800
03780800
03381800
02381800
021c1000
061c1000
061e3000
040e3000
040e2000
0c072000
0c076000
08076000
0803e000
1803c000
1801c000
1801c000
3801c000
fe00c000
ENDCHAR
STARTCHAR Oacute
ENCODING 211
SWIDTH 722 0
DWIDTH 24 0
BBX 19 30 3 0
BITMAP
0000c0
0001c0
000380
000700
000e00
000c00
000000
007e00
01c780
0301c0
0701c0
0e00e0
1e00e0
1c00e0
3800e0
7800e0
7801e0
7001e0
f001e0
f001c0
f003c0
e003c0
e00380
e00700
e00f00
e00e00
701c00
703800
3ce000
0f8000
ENDCHAR
STARTCHAR Ocircumflex
ENCODING 212
SWIDTH 722 0
DWIDTH 24 0
BBX 19 30 3 0
BITMAP
000e00
001e00
003700
006300
00c380
018180
000000
007e00
01c780
0301c0
0701c0
0e00e0
1e00e0
1c00e0
3800e0
7800e0
7801e0
7001e0
f001e0
f001c0
f003c0
e003c0
e00380
e00700
e00f00
e00e00
701c00
703800
3ce000
0f8000
ENDCHAR
STARTCHAR Odoubleacute
ENCODING 213
SWIDTH 722 0
DWIDTH 24 0
BBX 19 32 3 0
BITMAP
000c60
001ce0
0018c0
0039c0
003180
003180
006300
006300
000000
007e00
01c780
0301c0
0701c0
0e00e0
1e00e0
1c00e0
3800e0
7800e0
7801e0
7001e0
f001e0
f001c0
f003c0
e003c0
e00380
e00700
e00f00
e00e00
701c00
703800
3ce000
0f8000
ENDCHAR
STARTCHAR Odiaeresis
ENCODING 214
SWIDTH 722 0
DWIDTH 24 0
BBX 19 28 3 0
BITMAP
0071c0
0071c0
0071c0
000000
000000
007e00
01c780
0301c0
0701c0
0e00e0
1e00e0
1c00e0
3800e0
7800e0
7801e0
7001e0
f001e0
f001c0
f003c0
e003c0
e00380
e00700
e00f00
e00e00
701c00
703800
3ce000
0f8000
ENDCHAR
STARTCHAR multiply
ENCODING 215
SWIDTH 675 0
DWIDTH 22 0
BBX 17 17 3 0
BITMAP
400100
e00380
700700
380e00
1c1c00
0e3800
077000
03e000
01c000
03e000
077000
0e3800
1c1c00
380e00
700700
e00380
400100
ENDCHAR
STARTCHAR Rcaron
ENCODING 216
SWIDTH 611 0
DWIDTH 20 0
BBX 20 30 -1 0
BITMAP
003030
003860
0018c0
001d80
000f00
000e00
000000
03ff80
00f3e0
00e0e0
00e070
01e070
01c070
01c070
03c070
03c0e0
0380e0
0383c0
07ff00
07fc00
071c00
071c00
0f0e00
0e0e00
0e0700
0e0700
1e0780
1c0380
3e03c0
ff83f0
ENDCHAR
STARTCHAR Uring
ENCODING 217
SWIDTH 722 0
DWIDTH 24 0
BBX 23 30 3 0
BITMAP
001e00
003300
002100
002100
003300
001e00
000000
7fc0fe
1f0038
0e0018
0e0010
1e0030
1c0030
1c0020
3c0020
380060
380040
380040
7800c0
7000c0
700080
f00180
f00180
e00100
e00300
e00300
700600
781c00
3ff800
0fe000
ENDCHAR
STARTCHAR Uacute
ENCODING 218
SWIDTH 722 0
DWIDTH 24 0
BBX 23 30 3 0
BITMAP
0000c0
0001c0
000380
000700
000e00
000c00
000000
7fc0fe
1f0038
0e0018
0e0010
1e0030
1c0030
1c0020
3c0020
380060
380040
380040
7800c0
7000c0
700080
f00180
f00180
e00100
e00300
e00300
700600
781c00
3ff800
0fe000
ENDCHAR
STARTCHAR Udoubleacute
ENCODING 219
SWIDTH 722 0
DWIDTH 24 0
BBX 23 32 3 0
BITMAP
000c60
001ce0
0018c0
0039c0
003180
003180
006300
006300
000000
7fc0fe
1f0038
0e0018
0e0010
1e0030
1c0030
1c0020
3c0020
380060
380040
380040
7800c0
7000c0
700080
f00180
f00180
e00100
e00300
e00300
700600
781c00
3ff800
0fe000
ENDCHAR
STARTCHAR Udiaeresis
ENCODING 220
SWIDTH 722 0
DWIDTH 24 0
BBX 23 28 3 0
BITMAP
00e380
00e380
00e380
000000
000000
7fc0fe
1f0038
0e0018
0e0010
1e0030
1c0030
1c0020
3c0020
380060
380040
380040
7800c0
7000c0
700080
f00180
f00180
e00100
e00300
e00300
700600
781c00
3ff800
0fe000
ENDCHAR
STARTCHAR Yacute
ENCODING 221
SWIDTH 556 0
DWIDTH 19 0
BBX 20 30 2 0
BITMAP
000300
000700
000e00
001c00
003800
003000
000000
7f87f0
1e01c0
1e0300
1e0300
0e0600
0e0c00
0f1800
0f1800
073000
076000
07e000
03c000
03c000
038000
038000
078000
070000
070000
070000
0e0000
0e0000
1e0000
ffc000
ENDCHAR
STARTCHAR Tcedilla
ENCODING 222
SWIDTH 556 0
DWIDTH 18 0
BBX 18 31 3 -8
BITMAP
ffffc0
e1e1c0
c1e0c0
81e0c0
81c080
01c000
03c000
03c000
038000
038000
078000
078000
070000
070000
0f0000
0f0000
0e0000
0e0000
1e0000
1e0000
1e0000
3e0000
ff8000
004000
00c000
018000
03e000
007000
003000
047000
03e000
ENDCHAR
STARTCHAR ssharp
ENCODING 223
SWIDTH 500 0
DWIDTH 16 0
BBX 22 30 -5 -7
BITMAP
0003f0
000738
000e18
001c1c
00181c
00381c
00381c
003038
003030
0070e0
0063c0
0061e0
00e070
00e030
00e038
00c038
01c070
01c070
01c070
018c60
019ce0
039dc0
038f00
030000
030000
070000
660000
ee0000
ec0000
780000
ENDCHAR
STARTCHAR racute
ENCODING 224
SWIDTH 389 0
DWIDTH 13 0
BBX 12 22 2 0
BITMAP
0030
0070
00e0
01c0
0300
0200
0000
0c60
7cf0
19f0
1b30
1e00
3c00
3800
3800
3000
7000
7000
7000
6000
e000
e000
ENDCHAR
STARTCHAR aacute
ENCODING 225
SWIDTH 500 0
DWIDTH 16 0
BBX 15 23 0 0
BITMAP
000c
001c
0038
0070
00c0
0080
0000
0000
01ec
03bc
0e1c
1c1c
181c
3818
7018
7038
e038
e030
e070
e0f2
61b4
733c
1e18
ENDCHAR
STARTCHAR acircumflex
ENCODING 226
SWIDTH 500 0
DWIDTH 16 0
BBX 15 23 0 0
BITMAP
0070
00f0
01b8
0318
061c
0c0c
0000
0000
01ec
03bc
0e1c
1c1c
181c
3818
7018
7038
e038
e030
e070
e0f2
61b4
733c
1e18
ENDCHAR
STARTCHAR abreve
ENCODING 227
SWIDTH 500 0
DWIDTH 16 0
BBX 15 20 1 0
BITMAP
0204
030c
01f8
00f0
0000
01ec
03bc
0e1c
1c1c
181c
3818
7018
7038
e038
e030
e070
e0f2
61b4
733c
1e18
ENDCHAR
STARTCHAR adiaeresis
ENCODING 228
SWIDTH 500 0
DWIDTH 16 0
BBX 15 21 0 0
BITMAP
071c
071c
071c
0000
0000
0000
01ec
03bc
0e1c
1c1c
181c
3818
7018
7038
e038
e030
e070
e0f2
61b4
733c
1e18
ENDCHAR
STARTCHAR lacute
ENCODING 229
SWIDTH 278 0
DWIDTH 9 0
BBX 12 30 2 0
BITMAP
0030
0070
00e0
01c0
0300
0200
0000
0300
1f00
0700
0600
0e00
0e00
0c00
0c00
1c00
1c00
1800
3800
3800
3800
3000
7000
7000
6000
6000
e400
e800
f800
7000
ENDCHAR
STARTCHAR cacute
ENCODING 230
SWIDTH 444 0
DWIDTH 15 0
BBX 14 22 2 0
BITMAP
000c
001c
0038
0070
00c0
0080
0000
01e0
0630
0c38
1838
3010
3000
7000
6000
e000
e000
e000
e020
e0c0
7380
3e00
ENDCHAR
STARTCHAR ccedilla
ENCODING 231
SWIDTH 444 0
DWIDTH 15 0
BBX 13 22 2 -7
BITMAP
01e0
0630
0c38
1838
3010
3000
7000
6000
e000
e000
e000
e020
e0c0
7380
3e00
0c00
1800
3e00
0700
0300
4700
3c00
ENDCHAR
STARTCHAR ccaron
ENCODING 232
SWIDTH 444 0
DWIDTH 15 0
BBX 15 22 2 0
BITMAP
0606
070c
0318
03b0
01e0
01c0
0000
01e0
0630
0c38
1838
3010
3000
7000
6000
e000
e000
e000
e020
e0c0
7380
3e00
ENDCHAR
STARTCHAR eacute
ENCODING 233
SWIDTH 444 0
DWIDTH 15 0
BBX 13 23 1 0
BITMAP
0018
0038
0070
00e0
0180
0100
0000
0000
01e0
07f0
0e38
1c38
3870
30e0
71c0
7700
fc00
e000
e000
e020
e0c0
7380
3e00
ENDCHAR
STARTCHAR eogonek
ENCODING 234
SWIDTH 444 0
DWIDTH 15 0
BBX 13 23 2 -8
BITMAP
01e0
0670
0c38
1838
3070
30e0
71c0
7700
fc00
e000
e000
e020
e0c0
7380
3e00
0200
0400
0c00
1800
1800
1c40
0f80
0700
ENDCHAR
STARTCHAR ediaeresis
ENCODING 235
SWIDTH 444 0
DWIDTH 15 0
BBX 15 21 1 0
BITMAP
038e
038e
038e
0000
0000
0000
01e0
07f0
0e38
1c38
3870
30e0
71c0
7700
fc00
e000
e000
e020
e0c0
7380
3e00
ENDCHAR
STARTCHAR ecaron
ENCODING 236
SWIDTH 444 0
DWIDTH 15 0
BBX 15 22 2 0
BITMAP
0606
070c
0318
03b0
01e0
01c0
0000
01e0
0670
0c38
1838
3070
30e0
71c0
7700
fc00
e000
e000
e020
e0c0
7380
3e00
ENDCHAR
STARTCHAR iacute
ENCODING 237
SWIDTH 278 0
DWIDTH 9 0
BBX 9 23 1 0
BITMAP
0180
0380
0700
0e00
1800
1000
0000
0000
0c00
7c00
1c00
1800
3800
3800
3000
7000
7000
7000
6000
e400
e800
f800
7000
ENDCHAR
STARTCHAR icircumflex
ENCODING 238
SWIDTH 278 0
DWIDTH 9 0
BBX 11 23 1 0
BITMAP
0380
0780
0dc0
18c0
30e0
6060
0000
0000
0c00
7c00
1c00
1800
3800
3800
3000
7000
7000
7000
6000
e400
e800
f800
7000
ENDCHAR
STARTCHAR dcaron
ENCODING 239
SWIDTH 660 0
DWIDTH 22 0
BBX 22 25 1 0
BITMAP
00001c
00001c
00031c
001f0c
000708
000718
000630
000660
000600
000e00
01ec00
033c00
0e1c00
1c1c00
181c00
381800
701800
703800
e03800
e03000
e07000
e0f200
61b400
733c00
1e1800
ENDCHAR
STARTCHAR dstroke
ENCODING 240
SWIDTH 570 0
DWIDTH 19 0
BBX 19 23 1 0
BITMAP
000300
001f00
000700
000700
003fe0
003fe0
000600
000e00
01ec00
033c00
0e1c00
1c1c00
181c00
381800
701800
703800
e03800
e03000
e07000
e0f200
61b400
733c00
1e1800
ENDCHAR
STARTCHAR nacute
ENCODING 241
SWIDTH 500 0
DWIDTH 16 0
BBX 15 22 1 0
BITMAP
0018
0038
0070
00e0
0180
0100
0000
0c78
7cfc
1d1c
1a1c
3c1c
381c
3838
3838
7038
7038
7070
6072
e074
e07c
e038
ENDCHAR
STARTCHAR ncaron
ENCODING 242
SWIDTH 500 0
DWIDTH 16 0
BBX 15 22 1 0
BITMAP
0c0c
0e18
0630
0760
03c0
0380
0000
0c78
7cfc
1d1c
1a1c
3c1c
381c
3838
3838
7038
7038
7070
6072
e074
e07c
e038
ENDCHAR
STARTCHAR oacute
ENCODING 243
SWIDTH 500 0
DWIDTH 17 0
BBX 15 23 1 0
BITMAP
000c
001c
0038
0070
00c0
0080
0000
0000
01f0
039c
0e0c
1c0e
180e
380e
700e
701c
e01c
e038
e030
e070
60e0
7380
1f00
ENDCHAR
STARTCHAR ocircumflex
ENCODING 244
SWIDTH 500 0
DWIDTH 17 0
BBX 15 23 1 0
BITMAP
0038
0078
00dc
018c
030e
0606
0000
0000
01f0
039c
0e0c
1c0e
180e
380e
700e
701c
e01c
e038
e030
e070
60e0
7380
1f00
ENDCHAR
STARTCHAR odoubleacute
ENCODING 245
SWIDTH 500 0
DWIDTH 17 0
BBX 16 24 1 0
BITMAP
0063
00e7
00c6
01ce
018c
018c
0318
0318
0000
01f0
039c
0e0c
1c0e
180e
380e
700e
701c
e01c
e038
e030
e070
60e0
7380
1f00
ENDCHAR
STARTCHAR odiaeresis
ENCODING 246
SWIDTH 500 0
DWIDTH 17 0
BBX 16 21 1 0
BITMAP
01c7
01c7
01c7
0000
0000
0000
01f0
039c
0e0c
1c0e
180e
380e
700e
701c
e01c
e038
e030
e070
60e0
7380
1f00
ENDCHAR
STARTCHAR division
ENCODING 247
SWIDTH 675 0
DWIDTH 22 0
BBX 17 14 3 1
BITMAP
01c000
01c000
01c000
000000
000000
000000
ffff80
ffff80
000000
000000
000000
01c000
01c000
01c000
ENDCHAR
STARTCHAR rcaron
ENCODING 248
SWIDTH 389 0
DWIDTH 13 0
BBX 13 22 2 0
BITMAP
1818
1c30
0c60
0ec0
0780
0700
0000
0c60
7cf0
19f0
1b30
1e00
3c00
3800
3800
3000
7000
7000
7000
6000
e000
e000
ENDCHAR
STARTCHAR uring
ENCODING 249
SWIDTH 500 0
DWIDTH 17 0
BBX 15 22 1 0
BITMAP
03c0
0660
0420
0420
0660
03c0
0000
1c1c
fc1c
1c1c
381c
3838
3838
3838
3838
7038
7070
7070
70f0
71b2
7f3c
3c18
ENDCHAR
STARTCHAR uacute
ENCODING 250
SWIDTH 500 0
DWIDTH 17 0
BBX 15 23 1 0
BITMAP
0030
0070
00e0
01c0
0300
0200
0000
0000
1c1c
fc1c
1c1c
381c
3838
3838
3838
3838
7030
7070
7070
70f0
71b2
7f3c
3c18
ENDCHAR
STARTCHAR udoubleacute
ENCODING 251
SWIDTH 500 0
DWIDTH 17 0
BBX 15 24 1 0
BITMAP
018c
039c
0318
0738
0630
0630
0c60
0c60
0000
1c1c
fc1c
1c1c
381c
3838
3838
3838
3838
7038
7070
7070
70f0
71b2
7f3c
3c18
ENDCHAR
STARTCHAR udiaeresis
ENCODING 252
SWIDTH 500 0
DWIDTH 17 0
BBX 15 21 1 0
BITMAP
071c
071c
071c
0000
0000
0000
1c1c
fc1c
1c1c
381c
3838
3838
3838
3838
7030
7070
7070
70f0
71b2
7f3c
3c18
ENDCHAR
STARTCHAR yacute
ENCODING 253
SWIDTH 444 0
DWIDTH 15 0
BBX 16 30 -1 -7
BITMAP
000c
001c
0038
0070
00c0
0080
0000
0000
0707
3f07
0f03
0303
0383
0386
0386
018c
019c
0198
01b8
01f0
01e0
01e0
01c0
0180
0180
0300
0600
6e00
fc00
7000
ENDCHAR
STARTCHAR tcedilla
ENCODING 254
SWIDTH 278 0
DWIDTH 9 0
BBX 8 27 2 -8
BITMAP
04
04
0c
1c
7f
1c
18
38
38
38
30
70
70
60
60
e4
e8
f8
70
08
18
30
7c
0e
06
8e
7c
ENDCHAR
STARTCHAR abovedot
ENCODING 255
SWIDTH 333 0
DWIDTH 11 0
BBX 4 4 4 17
BITMAP
60
f0
f0
60
ENDCHAR
ENDFONT
